<svg xmlns="http://www.w3.org/2000/svg" width="120" height="60"><g transform="matrix(.971858 0 0 .971858 2.520633 1.267242)"><path d="M7.45 34.344a11.97 11.97 0 0 1-.808-4.369 12.23 12.23 0 0 1 3.622-8.625c2.302-2.28 5.42-3.554 8.66-3.538a13.12 13.12 0 0 1 1.72.12l-1.376 1.4h-.374c-3.353 0-6.512 1.57-8.534 4.246S7.687 29.71 8.6 32.936h9.365l-3.98 7.316 9.425-9.545H10.546l14.497-14.392a14.87 14.87 0 0 0-6.209-1.346c-6.746.003-12.668 4.5-14.495 10.985a15.07 15.07 0 0 0 6.64 16.932l4.488-8.483zm19.24-17.22l-4.5 8.483h8.034c1.44 3.75.94 7.967-1.336 11.276a12.2 12.2 0 0 1-10.05 5.286 14.05 14.05 0 0 1-1.78-.12l1.36-1.376h.42c2.837 0 5.558-1.127 7.564-3.133s3.133-4.727 3.133-7.564a11.71 11.71 0 0 0-.404-2.902h-9.365l3.905-7.376-9.605 9.56h12.896L12.64 43.7a15.07 15.07 0 0 0 14.048-26.585z" fill="#e1251b"/><path d="M38.857 33.525l.546-.806a.28.28 0 0 1 .438-.057c.47.458 1.095.72 1.75.736a1.23 1.23 0 0 0 1.269-1.199c0-.634-.42-1.028-1.212-1.548-.926-.634-2.03-1.408-2.03-2.817s.977-2.93 3.172-2.93a3.87 3.87 0 0 1 2.538.914.4.4 0 0 1 .038.565l-.546.774c-.114.17-.298.184-.495.032a2.33 2.33 0 0 0-1.592-.634c-.633-.025-1.168.465-1.2 1.098 0 .565.38.844 1.224 1.408s2.17 1.396 2.17 2.944c0 1.65-1.27 3.033-3.363 3.033a3.94 3.94 0 0 1-2.709-1.098c-.1-.076-.16-.203 0-.412zm6.928 1.047l5.298-9.517c.044-.093.138-.152.24-.152h.127c.093 0 .174.063.197.152l2.595 9.517a.28.28 0 0 1-.266.368H52.75c-.216 0-.33-.076-.368-.285l-.355-1.56H48.52l-.818 1.56a.5.5 0 0 1-.45.285h-1.27c-.222-.032-.292-.216-.197-.368zm5.792-3l-.634-3.07-1.535 3.07zm5.367-6.272c.032-.146.16-.25.3-.254h1.396c.065.002.126.033.166.085s.056.118.043.182l-.844 5.932c-.015.15-.015.3 0 .45a1.33 1.33 0 0 0 .358 1.097 1.32 1.32 0 0 0 1.082.4c1.155 0 1.802-.75 1.973-1.903l.844-5.945c.015-.145.133-.258.28-.266h1.396c.065.005.125.036.166.086a.23.23 0 0 1 .05.18l-.863 6.034c-.298 2.138-1.8 3.705-3.984 3.705a3.05 3.05 0 0 1-3.217-3.172c.003-.2.018-.378.044-.565zm13.952-.407a3.8 3.8 0 0 1 2.93 1.34c.087.126.062.297-.057.393l-.76.73a.31.31 0 0 1-.463 0 2.54 2.54 0 0 0-1.745-.704c-1.694 0-3.172 1.75-3.172 3.762 0 1.497.806 2.78 2.157 2.78a2.92 2.92 0 0 0 1.903-.831c.184-.16.336-.127.45 0l.774.933c.06.13.03.28-.07.38a4.51 4.51 0 0 1-3.172 1.37c-2.436 0-4.016-1.96-4.016-4.384-.013-3.318 2.322-5.767 5.24-5.767zm5.584.417c.014-.14.126-.252.266-.266h5.215c.065.002.126.033.166.085s.056.118.043.182L82 26.466c-.012.148-.13.264-.28.273h-3.6l-.324 2.3h2.988c.064.004.124.036.164.087s.056.116.046.18l-.165 1.167a.31.31 0 0 1-.285.266h-2.976l-.35 2.468h3.623c.14 0 .2.127.197.266l-.16 1.155c-.012.148-.13.264-.28.273H75.37c-.065-.003-.125-.036-.164-.1s-.05-.12-.033-.184z" fill="#474c55"/><path d="M85.526 25.3a.31.31 0 0 1 .279-.254h.634c.065.005.125.036.166.086a.23.23 0 0 1 .05.18L85.4 33.938h3.578a.22.22 0 0 1 .158.09c.038.052.052.115.04.177l-.057.406a.31.31 0 0 1-.279.273H84.4a.21.21 0 0 1-.167-.1c-.04-.063-.056-.12-.043-.184zm4.814 9.262l5.202-9.517a.25.25 0 0 1 .235-.152h.127c.093 0 .174.063.197.152l2.538 9.517c.02.085.003.175-.048.246s-.13.116-.218.122h-.596c-.1.005-.188-.062-.2-.16l-.565-2.322h-4.397l-1.2 2.322c-.052.1-.155.16-.266.16h-.634c-.2-.032-.26-.216-.165-.368zm6.344-2.988L95.6 26.96h-.1l-2.4 4.62zm8.75-1.627a2.14 2.14 0 0 1 1.193 1.903 2.99 2.99 0 0 1-.9 2.227 2.95 2.95 0 0 1-2.263.818h-2.918a.21.21 0 0 1-.167-.1c-.04-.063-.056-.12-.043-.184l1.34-9.314a.32.32 0 0 1 .285-.266h2.804a2.17 2.17 0 0 1 2.265 2.24 2.82 2.82 0 0 1-1.56 2.62zm-1.776 4c1.047-.048 1.857-.933 1.814-1.98a1.48 1.48 0 0 0-1.51-1.516h-1.973l-.514 3.496zm.425-4.498c1.04 0 1.713-.83 1.713-2.068 0-.818-.42-1.383-1.237-1.383h-1.94l-.495 3.508zm4.283 3.985l.222-.235c.17-.17.285-.228.45-.07a2.74 2.74 0 0 0 2.087.983 1.68 1.68 0 0 0 1.776-1.707c0-.888-.666-1.408-1.834-2.08s-1.903-1.27-1.903-2.57c0-1.18.742-2.842 3.052-2.842.788-.006 1.557.246 2.2.717.07.057.197.2 0 .482l-.16.222c-.14.197-.28.254-.463.127a2.87 2.87 0 0 0-1.675-.603c-.488-.02-.964.155-1.32.488s-.567.794-.582 1.283c0 .793.54 1.313 1.427 1.8 1.35.736 2.38 1.427 2.38 2.88 0 1.56-1.13 2.76-3.083 2.76a3.61 3.61 0 0 1-2.639-1.212c-.05-.102-.108-.228.076-.412z" fill="#e1251b"/></g></svg>