<svg xmlns="http://www.w3.org/2000/svg" viewBox="0 0 232.3 55.3"><linearGradient id="a" gradientUnits="userSpaceOnUse" x1="-343.602" y1="305.129" x2="-344.354" y2="305.942" gradientTransform="matrix(50.983 0 0 -45.226 17586.068 13882.607)"><stop offset="0" stop-color="#fff"/><stop offset="1"/></linearGradient><path d="M26.5 8L52 53.2H1L26.5 8z" fill="url(#a)"/><path d="M86.8 42h20.4v-3.6H91.8l15.1-21.6v-3.1H87v3.6h14.9L86.8 38.9V42zm41.8 0H147v-3.6h-14.2v-9.1h12.4v-3.6h-12.4v-8.5H147v-3.6h-18.4V42zm40.5 0H187v-3.6h-6.9V17.3h6.9v-3.6h-17.9v3.6h6.9v21.1h-6.9V42zm47.3 0h4.1V17.4h9.6v-3.6h-23.3v3.6h9.5l.1 24.6z" fill="#333"/></svg>